<?xml version="1.0" encoding="UTF-8" standalone="no"?>
<!-- Created with Inkscape (http://www.inkscape.org/) -->

<svg
   xmlns:dc="http://purl.org/dc/elements/1.1/"
   xmlns:cc="http://creativecommons.org/ns#"
   xmlns:rdf="http://www.w3.org/1999/02/22-rdf-syntax-ns#"
   xmlns:svg="http://www.w3.org/2000/svg"
   xmlns="http://www.w3.org/2000/svg"
   xmlns:sodipodi="http://sodipodi.sourceforge.net/DTD/sodipodi-0.dtd"
   xmlns:inkscape="http://www.inkscape.org/namespaces/inkscape"
   version="1.1"
   id="svg150"
   xml:space="preserve"
   width="360.09067"
   height="360.09198"
   viewBox="0 0 360.09068 360.09199"
   sodipodi:docname="logo.svg"
   inkscape:version="0.92.4 5da689c313, 2019-01-14"><metadata
     id="metadata156"><rdf:RDF><cc:Work
         rdf:about=""><dc:format>image/svg+xml</dc:format><dc:type
           rdf:resource="http://purl.org/dc/dcmitype/StillImage" /><dc:title></dc:title></cc:Work></rdf:RDF></metadata><defs
     id="defs154"><clipPath
       clipPathUnits="userSpaceOnUse"
       id="clipPath166"><path
         d="M 0,1000 H 1000 V 0 H 0 Z"
         id="path164"
         inkscape:connector-curvature="0" /></clipPath></defs><sodipodi:namedview
     pagecolor="#ffffff"
     bordercolor="#666666"
     borderopacity="1"
     objecttolerance="10"
     gridtolerance="10"
     guidetolerance="10"
     inkscape:pageopacity="0"
     inkscape:pageshadow="2"
     inkscape:window-width="3830"
     inkscape:window-height="2103"
     id="namedview152"
     showgrid="false"
     inkscape:zoom="1.0012633"
     inkscape:cx="584.5725"
     inkscape:cy="76.057569"
     inkscape:window-x="3844"
     inkscape:window-y="26"
     inkscape:window-maximized="0"
     inkscape:current-layer="g158" /><g
     id="g158"
     inkscape:groupmode="layer"
     inkscape:label="logo_2"
     transform="matrix(1.3333333,0,0,-1.3333333,-486.62092,951.31571)"><g
       id="g160"><g
         id="g162"
         clip-path="url(#clipPath166)"><g
           id="g168"
           transform="translate(146.6846,301.999)" /><g
           id="g172"
           transform="translate(214.8838,286.666)" /><g
           id="g176"
           transform="translate(281.9385,360.2832)" /><g
           id="g180"
           transform="translate(331.7529,286.5137)" /><g
           id="g184"
           transform="translate(367.0718,287.7344)" /><g
           id="g188"
           transform="translate(449.3848,360.2832)" /><g
           id="g192"
           transform="translate(501.5615,368.8271)" /><g
           id="g196"
           transform="translate(565.5664,286.666)" /><g
           id="g200"
           transform="translate(601.2656,287.7344)" /><g
           id="g204"
           transform="translate(699.9053,311.5361)" /><g
           id="g208"
           transform="translate(726.2979,301.999)" /><g
           id="g212"
           transform="translate(793.2012,361.4277)" /><g
           id="g216"
           transform="translate(835.0811,327.7852)" /><g
           id="g220"
           transform="translate(473.8027,465.0908)"><path
             d="M 0,0 C -6.882,0 -12.146,5.263 -12.146,12.146 V 28.34 c 0,2.43 1.62,4.049 4.049,4.049 h 142.361 c 1.966,2.62 3.812,5.334 5.588,8.097 H -8.097 c -2.429,0 -4.049,1.619 -4.049,4.049 0,2.429 1.62,4.048 4.049,4.048 h 152.793 c 1.448,2.644 2.788,5.351 4.062,8.098 H 4.049 c -8.907,0 -16.195,7.287 -16.195,16.194 0,8.907 7.288,16.195 16.195,16.195 H 159.01 c 0.486,2.673 0.894,5.371 1.22,8.097 H -8.097 c -2.429,0 -4.049,1.62 -4.049,4.049 0,2.429 1.62,4.048 4.049,4.048 h 169.066 c 0.158,2.681 0.262,5.377 0.262,8.098 H -8.097 c -2.429,0 -4.049,1.619 -4.049,4.048 0,59.798 50.132,108.428 111.737,109.274 -21.134,13.715 -46.322,21.712 -73.394,21.712 -74.577,0 -135.034,-60.457 -135.034,-135.034 0,-74.578 60.457,-135.035 135.034,-135.035 27.045,0 52.211,7.982 73.331,21.673 z"
             style="fill:#998675;fill-opacity:1;fill-rule:nonzero;stroke:none"
             id="path222"
             inkscape:connector-curvature="0" /></g></g></g></g></svg>